<svg xmlns="http://www.w3.org/2000/svg" xmlns:xlink="http://www.w3.org/1999/xlink" id="Camada_1" x="0px" y="0px" viewBox="0 0 354 249" style="enable-background:new 0 0 354 249;" xml:space="preserve"><style type="text/css">	.st0{fill:#FFFFFF;}	.st1{fill:#2AB1F5;}</style><path class="st0" d="M156.6,134.3c-2.6-0.5-3.2-4.6-7.3-1.7c-3.9,2.8-7.4,5-10.5,6.8c-20.6,11.8-43.3,5.9-58.4-11.5 C54.6,97.8,59.3,30.7,101,14.9c10.8-4.1,21.8-3.9,32.9,0.6c5.8,2.3,11.7,6.7,17.4,10.3c0.3,0.2,0.7,0.2,1,0l4.2-2.6 c0.2-0.1,0.4-0.1,0.6,0.1c0,0.1,0.1,0.1,0.1,0.2l2.4,27.9c0,0.4-0.3,0.8-0.7,0.8c-0.3,0-0.6-0.1-0.7-0.4c-6-10.8-11.1-22.8-22-30 c-17.9-11.8-39.2-4.4-49.7,13.2c-11.1,18.7-11.6,45.8-7.5,67.1c2.8,14.7,11,30,25.3,36.2c18,7.7,36.4-1.7,45.5-18 c2.8-5,5.6-10,8.4-15.1c0.2-0.3,0.5-0.5,0.8-0.4c0.9,0.2-1.6,26-1.9,28.8C157.1,134.1,156.9,134.3,156.6,134.3 C156.6,134.3,156.6,134.3,156.6,134.3z"></path><path class="st0" d="M209.8,134.4c13.9,0.2,27.8,0,41.7-0.5c9.7-0.4,11.9-8.4,15.1-15.9c0.2-0.5,0.7-0.9,1.2-1 c1.7-0.4,2.4,0.7,2,3.3c-1.1,6.4-1.8,12-2,16.9c-0.1,1.9-1.1,2.8-3,2.8c-24.6-0.3-49.2-0.4-73.8-0.2c-1.1,0-2-0.9-2-2 c0-0.2,0-0.5,0.1-0.7c0.7-1.8,1.7-3.8,2.9-5.9c19.8-31.9,39.6-63.9,59.5-95.8c1.8-2.9,7.6-10.5,1.2-10.7 c-11.4-0.4-22.8-0.5-34.2-0.2c-5.9,0.1-12.1,1.4-16.3,6.2c-3,3.4-3.2,7.9-6.2,11.4c-0.3,0.3-0.8,0.4-1.1,0.1 c-0.2-0.1-0.3-0.4-0.3-0.6c-0.1-6,0.3-11.9,1.3-17.8c0.4-2.2,0.4-4.6,3.4-4.5c28,0.7,51.8,0.7,71.4,0.1c1.7,0,3,0.3,4,1.1 c0.3,0.3,0.4,0.6,0.2,0.9c-2.1,4.1-4.8,9-8.3,14.6c-18.9,30.6-37.8,61.2-56.7,91.8c-0.9,1.4-1.5,2.7-1.9,3.9 c-0.4,1.1,0.2,2.2,1.2,2.6C209.3,134.4,209.5,134.4,209.8,134.4z"></path><path class="st1" d="M165.4,81.9l9.4-9.2c0.2-0.2,0.4-0.2,0.6,0l9.2,9.4c0.2,0.2,0.2,0.4,0,0.6l-9.4,9.2c-0.2,0.2-0.4,0.2-0.6,0 l-9.2-9.4C165.3,82.3,165.3,82,165.4,81.9z"></path><path class="st0" d="M300.9,197.2c1.3-8.5,8.8-6.1,14.5-5.1c0.3,0.1,0.5,0.2,0.5,0.5l0.6,4.3c0,0.4-0.1,0.5-0.5,0.5 c-0.3,0-0.5-0.2-0.6-0.6c-1.7-4.1-7-6.8-10.4-3.1c-7.1,7.8,19.2,13.3,11.5,24.2c-4,5.6-9.4,3.8-15.2,2.6c-0.3-0.1-0.5-0.3-0.6-0.6 l-0.6-5c0-0.3,0.1-0.5,0.4-0.4l0.4,0.1c0.2,0,0.3,0.1,0.3,0.2c3.4,11.4,18.9,4.3,10.8-4.5C308.3,206.4,299.8,204.1,300.9,197.2z"></path><path class="st0" d="M159.4,202.8c1.9,8.3-3.7,16.7-12.5,18.7c-8.8,2-17.4-3.2-19.3-11.5c-1.9-8.3,3.7-16.7,12.5-18.7 C148.9,189.3,157.5,194.4,159.4,202.8z M145.9,220.3c6.4-1,10.6-8.1,9.3-15.8c0,0,0,0,0,0c-1.2-7.7-7.4-13.1-13.8-12.1c0,0,0,0,0,0 c-6.4,1-10.6,8.1-9.3,15.8c0,0,0,0,0,0C133.3,215.9,139.5,221.3,145.9,220.3C145.9,220.3,145.9,220.3,145.9,220.3z"></path><path class="st0" d="M182.5,208.4c1.9-0.8,9.4-0.2,11.8-0.1c1.8,0.1,1.8,0.3,0.2,0.7c-1.1,0.2-2.1,0.8-2.8,1.7 c-0.2,0.3-0.3,0.6-0.3,0.9l-0.1,6.9c0,0.3-0.1,0.5-0.4,0.6c-7.8,4.1-18.5,4.1-23.7-3.8c-8.4-12.8,3.5-27.4,18-23.6 c1.8,0.5,3.6,0.8,5.4,1.2c0.3,0.1,0.5,0.2,0.5,0.6l0,6.2c0,0.2-0.2,0.4-0.5,0.4c-0.2,0-0.4-0.1-0.4-0.3c-3.6-12.4-18.8-8.1-20.8,2.6 c-1.9,10.1,5.8,22.3,17.1,16.9c0.3-0.2,0.5-0.4,0.5-0.8c0.2-4.6,1.4-8.1-4.5-9.7c-0.1,0-0.2-0.1-0.1-0.2 C182.4,208.5,182.4,208.4,182.5,208.4z"></path><path class="st0" d="M295.5,203.1c1.7,8.4-4.1,16.6-12.9,18.4c-8.8,1.8-17.3-3.6-19-11.9c0,0,0,0,0,0c-1.7-8.4,4.1-16.6,12.9-18.4 C285.3,189.4,293.8,194.7,295.5,203.1C295.5,203.1,295.5,203.1,295.5,203.1z M281.7,220.4c6.4-0.9,10.6-8,9.4-15.7 c-1.1-7.8-7.2-13.3-13.6-12.3c-6.4,0.9-10.6,8-9.4,15.7C269.2,215.8,275.3,221.3,281.7,220.4L281.7,220.4z"></path><path class="st0" d="M77.3,191.6c-5-0.2-10.7-0.2-17.1,0c-0.4,0-0.5,0.2-0.4,0.5c0.2,0.8,2.5,0.5,3.2,0.9c0.7,0.5,1.2,1.2,1.2,2v24 c0,0,0,0.1,0,0.1c0,0,0,0,0,0l0,0v2.1c3.4,0,6.8,0,10.2,0c3.2,0,5.7-0.4,7.5-1.1C97.3,213.9,93.6,192.4,77.3,191.6z M87.5,206.5 c0,7.6-5.9,13.8-13.3,13.8l-4.5,0c0,0,0,0,0,0c-0.7,0-1.4-0.6-1.3-1.4l-0.1-25.2c0-0.7,0.6-1.3,1.3-1.3l4.5,0h0 c7.4,0,13.4,6.1,13.4,13.7V206.5z"></path><path class="st0" d="M57.2,219.9c-1.3-0.5-1.9-1.2-2.3-2.3c-3.3-8.3-6.3-16.7-9-25.2c-0.1-0.4-0.4-0.6-0.8-0.6h-3 c-0.3,0-0.5,0.2-0.6,0.5L32,219.1c-0.1,0.3-0.4,0.6-0.7,0.7l-2.2,0.9c-1,0.4-1,0.6,0.1,0.6h10c1.4,0,1.4-0.2,0.1-0.5l-4-1.1 c0,0,0,0-0.1,0c-0.4-0.1-0.6-0.6-0.5-1l3.5-9.7c0.1-0.4,0.4-0.6,0.8-0.6h7.6c0.4,0,0.6,0.2,0.7,0.5l3.2,9.7c0.1,0.4,0,0.8-0.3,1 c-1.1,0.8-2.4,1.2-3.9,1c-0.1,0-0.3,0-0.4,0.1l-0.2,0.2c-0.3,0.3-0.2,0.4,0.2,0.4c3.5,0,7,0,11.2,0V219.9z M45.5,206l-5.4,0.1 c-0.1,0-0.1,0-0.2,0c-0.3-0.1-0.5-0.4-0.4-0.8l2.6-8.2c0.1-0.2,0.2-0.3,0.4-0.4c0.3-0.1,0.7,0,0.8,0.4l2.9,8.1c0,0.1,0,0.1,0,0.2 C46.1,205.7,45.9,205.9,45.5,206z"></path><path class="st0" d="M202.6,219.4c1.2,0.9,2.6,1.2,4.1,1.1c0.2,0,0.4,0.1,0.5,0.3c0,0.1,0.1,0.2,0.1,0.3s0,0.2-0.1,0.2l-10.7,0 c-0.3,0-0.4-0.2-0.4-0.5c0-0.2,0.2-0.3,0.4-0.3c2-0.1,3.2-1.1,3.8-2.9c2.7-8.5,5.6-16.9,8.6-25.3c0.1-0.4,0.4-0.6,0.8-0.6h2.5 c0.4,0,0.6,0.2,0.8,0.5c2.9,7.5,5.6,15.1,8.2,22.7c1.5,4.4,3.3,6.4,8.1,5.2c1.7-0.4,2.6-0.7,2.6-2.8c0-7.4,0.1-14.7,0.2-22.1 c0-1.3-0.9-2.3-2.1-2.5l-2.3-0.4c-0.2-0.1-0.4-0.3-0.4-0.5c0-0.2,0.2-0.4,0.4-0.4c5.7-0.1,11.5-0.1,17.2,0.1 c10.1,0.4,17.7,10.6,13.2,20.2c-3.3,7-9.3,9.4-17.1,9.4c-9.2,0-18.4,0-27.6,0c-0.1,0-0.2-0.1-0.2-0.2c0-0.1,0-0.2,0-0.3 c0-0.1,0.1-0.2,0.2-0.2l3.1-0.3c1-0.1,1.7-1,1.6-2c0-0.1,0-0.3-0.1-0.4l-3.1-9.1c-0.1-0.3-0.4-0.5-0.7-0.5h-7.9 c-0.3,0-0.6,0.2-0.7,0.5l-3.3,9.7C202.2,218.8,202.3,219.2,202.6,219.4z M235.8,194.1l0,24.6c0,0.9,0.8,1.7,1.7,1.7h4.1 c7.3,0,13.1-5.9,13.1-13.1c0,0,0,0,0,0v-1.7c0-7.2-5.9-13.1-13.2-13.1h-4.1C236.5,192.4,235.8,193.1,235.8,194.1 C235.8,194.1,235.8,194.1,235.8,194.1z M206.9,205.6c-0.1,0.2,0,0.4,0.2,0.4c0,0,0.1,0,0.1,0l5.9,0c0.2,0,0.3-0.2,0.3-0.3 c0,0,0-0.1,0-0.1l-3-8.9c-0.1-0.2-0.3-0.3-0.4-0.2c-0.1,0-0.2,0.1-0.2,0.2L206.9,205.6z"></path><path class="st0" d="M116.9,193.1c-0.3-0.1-2.7-0.1-2.6-0.9c0-0.3,0.2-0.4,0.5-0.4l10.1,0c0.1,0,0.2,0.1,0.2,0.2 c0,0.1-0.1,0.2-0.1,0.2c-2.2,0.8-3.8,2.3-4.6,4.6c-3,8-6,16.1-8.9,24.2c-0.2,0.5-0.6,0.9-1.1,1c-1.1,0.2-1.8-0.1-2.1-0.9 c-3.7-9.1-7.5-18.2-11.3-27.2c-0.1-0.3-0.3-0.5-0.6-0.6l-2.3-0.7c-1.7-0.5-1.7-0.8,0.1-0.8h12c0.3,0,0.4,0.1,0.4,0.4 c0,0.4-3.2,1-3.8,1.2c-0.4,0.1-0.6,0.4-0.6,0.8c-0.1,0.8,0.1,1.8,0.7,3c2.6,5.8,5,11.8,7.2,17.8c0.1,0.3,0.4,0.4,0.6,0.3 c0.1-0.1,0.2-0.2,0.3-0.3l7.1-19.7c0.3-0.9-0.1-1.9-1-2.2C117,193.1,116.9,193.1,116.9,193.1z"></path><rect x="4.1" y="173.8" class="st1" width="344.2" height="2.4"></rect><rect x="4.1" y="234.7" class="st1" width="344.2" height="2.4"></rect></svg>